<svg version="1.1" xmlns="http://www.w3.org/2000/svg" xmlns:xlink="http://www.w3.org/1999/xlink"
     viewBox="0 2 16 16">
  <path fill="#fff" stroke="#0f7b0f" d="M6.987 2.066a2 2 0 0 1 2.327.946l.075.149.661 1.471a2.497 2.497 0 0 1-.442 2.718l-.132.132-1.044.973c-.188.178-.047.867.634 2.045.611 1.06 1.11 1.555 1.354 1.582h.043l.053-.01 2.05-.627a1.5 1.5 0 0 1 1.564.441l.092.115 1.356 1.88a2 2 0 0 1-.124 2.497l-.122.126-.543.514a3.5 3.5 0 0 1-3.715.705c-1.935-.78-3.693-2.562-5.29-5.328-1.6-2.773-2.265-5.19-1.968-7.26a3.5 3.5 0 0 1 2.262-2.789l.193-.064.716-.216z"/>
</svg>