<svg version="1.1" xmlns="http://www.w3.org/2000/svg" xmlns:xlink="http://www.w3.org/1999/xlink"
     viewBox="2 2 16 16">
    <g transform="scale(1 1.15)">
      <path fill="#fff" stroke="#c42b1c" d="M17.9594 10.94L17.8015 11.7691C17.6535 12.546 16.9272 13.0678 16.1042 12.9883L14.4666 12.8301C13.753 12.7612 13.2241 12.24 13 11.5C12.6957 10.4952 12.5 9.75 12.5 9.75C11.7522 9.44348 11.0138 9.24996 10 9.24996C8.98623 9.24996 8.26225 9.46483 7.5 9.75C7.5 9.75 7.29566 10.4959 7 11.5C6.80244 12.1709 6.49595 12.7566 5.79708 12.8268L4.16895 12.9904C3.35656 13.0721 2.57765 12.5554 2.3467 11.7817L2.09921 10.9525C1.85286 10.1272 2.0727 9.2586 2.67633 8.67236C4.10141 7.28834 6.6656 6.50821 9.99245 6.50389C13.3241 6.4996 15.5858 7.27551 17.154 8.65967C17.8139 9.24211 18.116 10.1178 17.9594 10.94Z" />
    </g>
</svg>